{
  "accessors": [
    {
      "bufferView": 2,
      "componentType": 5126,
      "count": 19178,
      "max": [
        65.514617919921875,
        132.13291931152344,
        110.08702850341797
      ],
      "min": [
        -65.514617919921875,
        -192.62506103515625,
        25.20219612121582
      ],
      "type": "VEC3"
    },
    {
      "bufferView": 2,
      "byteOffset": 230136,
      "componentType": 5126,
      "count": 19178,
      "max": [
        1,
        0.99999982118606567,
        1
      ],
      "min": [
        -1,
        -1,
        -1
      ],
      "type": "VEC3"
    },
    {
      "bufferView": 1,
      "componentType": 5126,
      "count": 19178,
      "max": [
        0.6028023362159729,
        0.99082016944885254
      ],
      "min": [
        -0.0034361779689788818,
        0.27952402830123901
      ],
      "type": "VEC2"
    },
    {
      "bufferView": 0,
      "componentType": 5125,
      "count": 77472,
      "max": [
        19177
      ],
      "min": [
        0
      ],
      "type": "SCALAR"
    },
    {
      "bufferView": 2,
      "byteOffset": 460272,
      "componentType": 5126,
      "count": 12002,
      "max": [
        64.7686767578125,
        23.525264739990234,
        77.38055419921875
      ],
      "min": [
        -64.7686767578125,
        -194.71432495117188,
        23.316518783569336
      ],
      "type": "VEC3"
    },
    {
      "bufferView": 2,
      "byteOffset": 604296,
      "componentType": 5126,
      "count": 12002,
      "max": [
        1,
        0.99999982118606567,
        1
      ],
      "min": [
        -1,
        -1,
        -1
      ],
      "type": "VEC3"
    },
    {
      "bufferView": 1,
      "byteOffset": 153424,
      "componentType": 5126,
      "count": 12002,
      "max": [
        0.67040437459945679,
        0.3613506555557251
      ],
      "min": [
        0.47697818279266357,
        0.0046284031122922897
      ],
      "type": "VEC2"
    },
    {
      "bufferView": 0,
      "byteOffset": 309888,
      "componentType": 5125,
      "count": 45807,
      "max": [
        12001
      ],
      "min": [
        0
      ],
      "type": "SCALAR"
    },
    {
      "bufferView": 2,
      "byteOffset": 748320,
      "componentType": 5126,
      "count": 9062,
      "max": [
        72.144119262695312,
        119.20436096191406,
        83.344184875488281
      ],
      "min": [
        -72.144119262695312,
        -184.75784301757812,
        57.316024780273438
      ],
      "type": "VEC3"
    },
    {
      "bufferView": 2,
      "byteOffset": 857064,
      "componentType": 5126,
      "count": 9062,
      "max": [
        1,
        0.9941173791885376,
        1
      ],
      "min": [
        -1,
        -0.98719680309295654,
        -1
      ],
      "type": "VEC3"
    },
    {
      "bufferView": 1,
      "byteOffset": 249440,
      "componentType": 5126,
      "count": 9062,
      "max": [
        0.99019652605056763,
        0.58176982402801514
      ],
      "min": [
        0.37604331970214844,
        0.015977120026946068
      ],
      "type": "VEC2"
    },
    {
      "bufferView": 0,
      "byteOffset": 493116,
      "componentType": 5125,
      "count": 32568,
      "max": [
        9061
      ],
      "min": [
        0
      ],
      "type": "SCALAR"
    },
    {
      "bufferView": 2,
      "byteOffset": 965808,
      "componentType": 5126,
      "count": 4866,
      "max": [
        72.21551513671875,
        119.39463043212891,
        106.65034484863281
      ],
      "min": [
        -72.21551513671875,
        -186.1104736328125,
        40.560199737548828
      ],
      "type": "VEC3"
    },
    {
      "bufferView": 2,
      "byteOffset": 1024200,
      "componentType": 5126,
      "count": 4866,
      "max": [
        1,
        0.99283677339553833,
        1
      ],
      "min": [
        -1,
        -0.96825522184371948,
        -1
      ],
      "type": "VEC3"
    },
    {
      "bufferView": 1,
      "byteOffset": 321936,
      "componentType": 5126,
      "count": 4866,
      "max": [
        0.98991364240646362,
        0.43074604868888855
      ],
      "min": [
        0.68015742301940918,
        0.012102928012609482
      ],
      "type": "VEC2"
    },
    {
      "bufferView": 0,
      "byteOffset": 623388,
      "componentType": 5125,
      "count": 22872,
      "max": [
        4865
      ],
      "min": [
        0
      ],
      "type": "SCALAR"
    },
    {
      "bufferView": 2,
      "byteOffset": 1082592,
      "componentType": 5126,
      "count": 31292,
      "max": [
        -45.856517791748047,
        89.630424499511719,
        55.962516784667969
      ],
      "min": [
        -64.656951904296875,
        38.17156982421875,
        4.5036582946777344
      ],
      "type": "VEC3"
    },
    {
      "bufferView": 2,
      "byteOffset": 1458096,
      "componentType": 5126,
      "count": 31292,
      "max": [
        1,
        1,
        1
      ],
      "min": [
        -1,
        -1,
        -1
      ],
      "type": "VEC3"
    },
    {
      "bufferView": 1,
      "byteOffset": 360864,
      "componentType": 5126,
      "count": 31292,
      "max": [
        0.98496055603027344,
        0.99545967578887939
      ],
      "min": [
        0.0076624234206974506,
        0.0058728437870740891
      ],
      "type": "VEC2"
    },
    {
      "bufferView": 0,
      "byteOffset": 714876,
      "componentType": 5125,
      "count": 119790,
      "max": [
        31291
      ],
      "min": [
        0
      ],
      "type": "SCALAR"
    },
    {
      "bufferView": 2,
      "byteOffset": 1833600,
      "componentType": 5126,
      "count": 17152,
      "max": [
        72.058853149414062,
        131.45858764648438,
        103.58221435546875
      ],
      "min": [
        -72.058853149414062,
        -192.84617614746094,
        18.775884628295898
      ],
      "type": "VEC3"
    },
    {
      "bufferView": 2,
      "byteOffset": 2039424,
      "componentType": 5126,
      "count": 17152,
      "max": [
        1,
        1,
        1
      ],
      "min": [
        -1,
        -1,
        -1
      ],
      "type": "VEC3"
    },
    {
      "bufferView": 1,
      "byteOffset": 611200,
      "componentType": 5126,
      "count": 17152,
      "max": [
        0.99552428722381592,
        0.98628431558609009
      ],
      "min": [
        0.51076096296310425,
        0.37623164057731628
      ],
      "type": "VEC2"
    },
    {
      "bufferView": 0,
      "byteOffset": 1194036,
      "componentType": 5125,
      "count": 63972,
      "max": [
        17151
      ],
      "min": [
        0
      ],
      "type": "SCALAR"
    },
    {
      "bufferView": 2,
      "byteOffset": 2245248,
      "componentType": 5126,
      "count": 10338,
      "max": [
        65.556350708007812,
        124.43617248535156,
        106.57354736328125
      ],
      "min": [
        -65.556350708007812,
        -192.36264038085938,
        17.968101501464844
      ],
      "type": "VEC3"
    },
    {
      "bufferView": 2,
      "byteOffset": 2369304,
      "componentType": 5126,
      "count": 10338,
      "max": [
        1,
        1,
        1
      ],
      "min": [
        -1,
        -0.99961990118026733,
        -1
      ],
      "type": "VEC3"
    },
    {
      "bufferView": 1,
      "byteOffset": 748416,
      "componentType": 5126,
      "count": 10338,
      "max": [
        0.99683874845504761,
        0.61102575063705444
      ],
      "min": [
        0.018826091662049294,
        0.0080951834097504616
      ],
      "type": "VEC2"
    },
    {
      "bufferView": 0,
      "byteOffset": 1449924,
      "componentType": 5125,
      "count": 23568,
      "max": [
        10337
      ],
      "min": [
        0
      ],
      "type": "SCALAR"
    },
    {
      "bufferView": 2,
      "byteOffset": 2493360,
      "componentType": 5126,
      "count": 31294,
      "max": [
        64.656951904296875,
        25.729427337646484,
        25.729425430297852
      ],
      "min": [
        45.856517791748047,
        -25.729423522949219,
        -25.729434967041016
      ],
      "type": "VEC3"
    },
    {
      "bufferView": 2,
      "byteOffset": 2868888,
      "componentType": 5126,
      "count": 31294,
      "max": [
        1,
        1,
        1
      ],
      "min": [
        -1,
        -1,
        -1
      ],
      "type": "VEC3"
    },
    {
      "bufferView": 1,
      "byteOffset": 831120,
      "componentType": 5126,
      "count": 31294,
      "max": [
        0.98496055603027344,
        0.99545967578887939
      ],
      "min": [
        0.0076624234206974506,
        0.0058728437870740891
      ],
      "type": "VEC2"
    },
    {
      "bufferView": 0,
      "byteOffset": 1544196,
      "componentType": 5125,
      "count": 119790,
      "max": [
        31293
      ],
      "min": [
        0
      ],
      "type": "SCALAR"
    },
    {
      "bufferView": 2,
      "byteOffset": 3244416,
      "componentType": 5126,
      "count": 31292,
      "max": [
        -45.856517791748047,
        89.630424499511719,
        55.962516784667969
      ],
      "min": [
        -64.656951904296875,
        38.17156982421875,
        4.5036582946777344
      ],
      "type": "VEC3"
    },
    {
      "bufferView": 2,
      "byteOffset": 3619920,
      "componentType": 5126,
      "count": 31292,
      "max": [
        1,
        1,
        1
      ],
      "min": [
        -1,
        -1,
        -1
      ],
      "type": "VEC3"
    },
    {
      "bufferView": 1,
      "byteOffset": 1081472,
      "componentType": 5126,
      "count": 31292,
      "max": [
        0.98496055603027344,
        0.99545967578887939
      ],
      "min": [
        0.0076624234206974506,
        0.0058728437870740891
      ],
      "type": "VEC2"
    },
    {
      "bufferView": 0,
      "byteOffset": 2023356,
      "componentType": 5125,
      "count": 119790,
      "max": [
        31291
      ],
      "min": [
        0
      ],
      "type": "SCALAR"
    },
    {
      "bufferView": 2,
      "byteOffset": 3995424,
      "componentType": 5126,
      "count": 31294,
      "max": [
        64.656951904296875,
        25.729427337646484,
        25.729425430297852
      ],
      "min": [
        45.856517791748047,
        -25.729423522949219,
        -25.729434967041016
      ],
      "type": "VEC3"
    },
    {
      "bufferView": 2,
      "byteOffset": 4370952,
      "componentType": 5126,
      "count": 31294,
      "max": [
        1,
        1,
        1
      ],
      "min": [
        -1,
        -1,
        -1
      ],
      "type": "VEC3"
    },
    {
      "bufferView": 1,
      "byteOffset": 1331808,
      "componentType": 5126,
      "count": 31294,
      "max": [
        0.98496055603027344,
        0.99545967578887939
      ],
      "min": [
        0.0076624234206974506,
        0.0058728437870740891
      ],
      "type": "VEC2"
    },
    {
      "bufferView": 0,
      "byteOffset": 2502516,
      "componentType": 5125,
      "count": 119790,
      "max": [
        31293
      ],
      "min": [
        0
      ],
      "type": "SCALAR"
    }
  ],
  "asset": {
    "extras": {
      "author": "Kai Xiang (https://sketchfab.com/kirikom9000)",
      "license": "CC-BY-4.0 (http://creativecommons.org/licenses/by/4.0/)",
      "source": "https://sketchfab.com/3d-models/lamborghini-urus-2018-32964087f5d24c3e90482724ddfc2fef",
      "title": "Lamborghini Urus 2018"
    },
    "generator": "Sketchfab-8.60.0",
    "version": "2.0"
  },
  "bufferViews": [
    {
      "buffer": 0,
      "byteLength": 2981676,
      "byteOffset": 0,
      "name": "floatBufferViews",
      "target": 34963
    },
    {
      "buffer": 0,
      "byteLength": 1582160,
      "byteOffset": 2981676,
      "byteStride": 8,
      "name": "floatBufferViews",
      "target": 34962
    },
    {
      "buffer": 0,
      "byteLength": 4746480,
      "byteOffset": 4563836,
      "byteStride": 12,
      "name": "floatBufferViews",
      "target": 34962
    }
  ],
  "buffers": [
    {
      "byteLength": 9310316,
      "uri": "scene.bin"
    }
  ],
  "images": [
    {
      "uri": "textures/body_baseColor.png"
    },
    {
      "uri": "textures/body_metallicRoughness.png"
    },
    {
      "uri": "textures/wheellight_baseColor.png"
    },
    {
      "uri": "textures/wheellight_metallicRoughness.png"
    },
    {
      "uri": "textures/wheellight_emissive.png"
    },
    {
      "uri": "textures/glass_metallicRoughness.png"
    }
  ],
  "materials": [
    {
      "alphaMode": "BLEND",
      "doubleSided": false,
      "emissiveFactor": [
        0,
        0,
        0
      ],
      "name": "body",
      "occlusionTexture": {
        "index": 1,
        "strength": 1,
        "texCoord": 0
      },
      "pbrMetallicRoughness": {
        "baseColorFactor": [
          1,
          1,
          1,
          1
        ],
        "baseColorTexture": {
          "index": 0,
          "texCoord": 0
        },
        "metallicFactor": 1,
        "metallicRoughnessTexture": {
          "index": 1,
          "texCoord": 0
        },
        "roughnessFactor": 1
      }
    },
    {
      "doubleSided": false,
      "emissiveFactor": [
        1,
        1,
        1
      ],
      "emissiveTexture": {
        "index": 4,
        "texCoord": 0
      },
      "name": "wheellight",
      "pbrMetallicRoughness": {
        "baseColorFactor": [
          1,
          1,
          1,
          1
        ],
        "baseColorTexture": {
          "index": 2,
          "texCoord": 0
        },
        "metallicFactor": 0.36756859759999999,
        "metallicRoughnessTexture": {
          "index": 3,
          "texCoord": 0
        },
        "roughnessFactor": 1
      }
    },
    {
      "alphaMode": "BLEND",
      "doubleSided": true,
      "name": "glass",
      "pbrMetallicRoughness": {
        "baseColorFactor": [
          1,
          1,
          1,
          1
        ],
        "baseColorTexture": {
          "index": 0,
          "texCoord": 0
        },
        "metallicFactor": 1,
        "metallicRoughnessTexture": {
          "index": 5,
          "texCoord": 0
        },
        "roughnessFactor": 1
      }
    }
  ],
  "meshes": [
    {
      "name": "yellow_body_0",
      "primitives": [
        {
          "attributes": {
            "NORMAL": 1,
            "POSITION": 0,
            "TEXCOORD_0": 2
          },
          "indices": 3,
          "material": 0,
          "mode": 4
        }
      ]
    },
    {
      "name": "silver_body_0",
      "primitives": [
        {
          "attributes": {
            "NORMAL": 5,
            "POSITION": 4,
            "TEXCOORD_0": 6
          },
          "indices": 7,
          "material": 0,
          "mode": 4
        }
      ]
    },
    {
      "name": "lights_wheel/light_0",
      "primitives": [
        {
          "attributes": {
            "NORMAL": 9,
            "POSITION": 8,
            "TEXCOORD_0": 10
          },
          "indices": 11,
          "material": 1,
          "mode": 4
        }
      ]
    },
    {
      "name": "glass_glass_0",
      "primitives": [
        {
          "attributes": {
            "NORMAL": 13,
            "POSITION": 12,
            "TEXCOORD_0": 14
          },
          "indices": 15,
          "material": 2,
          "mode": 4
        }
      ]
    },
    {
      "name": "wheel_wheel/light_0",
      "primitives": [
        {
          "attributes": {
            "NORMAL": 17,
            "POSITION": 16,
            "TEXCOORD_0": 18
          },
          "indices": 19,
          "material": 1,
          "mode": 4
        }
      ]
    },
    {
      "name": "gloss_black_body_0",
      "primitives": [
        {
          "attributes": {
            "NORMAL": 21,
            "POSITION": 20,
            "TEXCOORD_0": 22
          },
          "indices": 23,
          "material": 0,
          "mode": 4
        }
      ]
    },
    {
      "name": "matt_black_body_0",
      "primitives": [
        {
          "attributes": {
            "NORMAL": 25,
            "POSITION": 24,
            "TEXCOORD_0": 26
          },
          "indices": 27,
          "material": 0,
          "mode": 4
        }
      ]
    },
    {
      "name": "wheel001_wheel/light_0",
      "primitives": [
        {
          "attributes": {
            "NORMAL": 29,
            "POSITION": 28,
            "TEXCOORD_0": 30
          },
          "indices": 31,
          "material": 1,
          "mode": 4
        }
      ]
    },
    {
      "name": "wheel002_wheel/light_0",
      "primitives": [
        {
          "attributes": {
            "NORMAL": 33,
            "POSITION": 32,
            "TEXCOORD_0": 34
          },
          "indices": 35,
          "material": 1,
          "mode": 4
        }
      ]
    },
    {
      "name": "wheel003_wheel/light_0",
      "primitives": [
        {
          "attributes": {
            "NORMAL": 37,
            "POSITION": 36,
            "TEXCOORD_0": 38
          },
          "indices": 39,
          "material": 1,
          "mode": 4
        }
      ]
    }
  ],
  "nodes": [
    {
      "children": [
        1
      ],
      "name": "RootNode (gltf orientation matrix)",
      "rotation": [
        -0.70710678118654746,
        -0,
        -0,
        0.70710678118654757
      ]
    },
    {
      "children": [
        2
      ],
      "name": "RootNode (model correction matrix)"
    },
    {
      "children": [
        3
      ],
      "matrix": [
        1,
        0,
        0,
        0,
        0,
        0,
        1,
        0,
        0,
        -1,
        0,
        0,
        0,
        0,
        0,
        1
      ],
      "name": "05035d7ca5ed43e8819f9015d002fd93.fbx"
    },
    {
      "children": [
        4,
        6,
        8,
        10,
        12,
        15,
        17,
        19,
        21,
        24
      ],
      "name": "RootNode"
    },
    {
      "children": [
        5
      ],
      "matrix": [
        1,
        0,
        0,
        0,
        0,
        2.2204460492503131e-16,
        -1,
        0,
        0,
        1,
        2.2204460492503131e-16,
        0,
        0,
        0,
        0,
        1
      ],
      "name": "yellow"
    },
    {
      "mesh": 0,
      "name": "yellow_body_0"
    },
    {
      "children": [
        7
      ],
      "matrix": [
        1,
        0,
        0,
        0,
        0,
        2.2204460492503131e-16,
        -1,
        0,
        0,
        1,
        2.2204460492503131e-16,
        0,
        0,
        0,
        0,
        1
      ],
      "name": "silver"
    },
    {
      "mesh": 1,
      "name": "silver_body_0"
    },
    {
      "children": [
        9
      ],
      "matrix": [
        1,
        0,
        0,
        0,
        0,
        2.2204460492503131e-16,
        -1,
        0,
        0,
        1,
        2.2204460492503131e-16,
        0,
        0,
        0,
        0,
        1
      ],
      "name": "lights"
    },
    {
      "mesh": 2,
      "name": "lights_wheel/light_0"
    },
    {
      "children": [
        11
      ],
      "matrix": [
        1,
        0,
        0,
        0,
        0,
        2.2204460492503131e-16,
        -1,
        0,
        0,
        1,
        2.2204460492503131e-16,
        0,
        0,
        0,
        0,
        1
      ],
      "name": "glass"
    },
    {
      "mesh": 3,
      "name": "glass_glass_0"
    },
    {
      "children": [
        13
      ],
      "matrix": [
        1,
        0,
        0,
        0,
        0,
        2.2204460492503131e-16,
        -1,
        0,
        0,
        1,
        2.2204460492503131e-16,
        0,
        0,
        30.233087539672852,
        -63.900997161865234,
        1
      ],
      "name": "wheel"
    },
    {
      "children": [
        14
      ],
      "matrix": [
        1,
        0,
        -0,
        0,
        0,
        1,
        0,
        0,
        0,
        0,
        1,
        0,
        0,
        -63.900997161865234,
        -30.233087539672852,
        1
      ],
      "name": ""
    },
    {
      "mesh": 4,
      "name": "wheel_wheel/light_0"
    },
    {
      "children": [
        16
      ],
      "matrix": [
        1,
        0,
        0,
        0,
        0,
        2.2204460492503131e-16,
        -1,
        0,
        0,
        1,
        2.2204460492503131e-16,
        0,
        0,
        0,
        0,
        1
      ],
      "name": "gloss_black"
    },
    {
      "mesh": 5,
      "name": "gloss_black_body_0"
    },
    {
      "children": [
        18
      ],
      "matrix": [
        1,
        0,
        0,
        0,
        0,
        2.2204460492503131e-16,
        -1,
        0,
        0,
        1,
        2.2204460492503131e-16,
        0,
        0,
        0,
        0,
        1
      ],
      "name": "matt_black"
    },
    {
      "mesh": 6,
      "name": "matt_black_body_0"
    },
    {
      "children": [
        20
      ],
      "matrix": [
        1,
        0,
        0,
        0,
        0,
        2.2204460492503131e-16,
        -1,
        0,
        0,
        1,
        2.2204460492503131e-16,
        0,
        0,
        30.233087539672852,
        -63.900997161865234,
        1
      ],
      "name": "wheel001"
    },
    {
      "mesh": 7,
      "name": "wheel001_wheel/light_0"
    },
    {
      "children": [
        22
      ],
      "matrix": [
        1,
        0,
        0,
        0,
        0,
        2.2204460492503131e-16,
        -1,
        0,
        0,
        1,
        2.2204460492503131e-16,
        0,
        0,
        30.233087539672852,
        129.04747009277344,
        1
      ],
      "name": "wheel002"
    },
    {
      "children": [
        23
      ],
      "matrix": [
        1,
        0,
        -0,
        0,
        0,
        1,
        0,
        0,
        0,
        0,
        1,
        0,
        0,
        -63.900997161865234,
        -30.233087539672852,
        1
      ],
      "name": ""
    },
    {
      "mesh": 8,
      "name": "wheel002_wheel/light_0"
    },
    {
      "children": [
        25
      ],
      "matrix": [
        1,
        0,
        0,
        0,
        0,
        2.2204460492503131e-16,
        -1,
        0,
        0,
        1,
        2.2204460492503131e-16,
        0,
        0,
        30.233087539672852,
        129.04747009277344,
        1
      ],
      "name": "wheel003"
    },
    {
      "mesh": 9,
      "name": "wheel003_wheel/light_0"
    }
  ],
  "samplers": [
    {
      "magFilter": 9729,
      "minFilter": 9987,
      "wrapS": 10497,
      "wrapT": 10497
    }
  ],
  "scene": 0,
  "scenes": [
    {
      "name": "OSG_Scene",
      "nodes": [
        0
      ]
    }
  ],
  "textures": [
    {
      "sampler": 0,
      "source": 0
    },
    {
      "sampler": 0,
      "source": 1
    },
    {
      "sampler": 0,
      "source": 2
    },
    {
      "sampler": 0,
      "source": 3
    },
    {
      "sampler": 0,
      "source": 4
    },
    {
      "sampler": 0,
      "source": 5
    }
  ]
}

